# AST/ASF file generated using VICON BodyLanguage
# -----------------------------------------------
:version 1.10
:name VICON
:units
  mass 1.0
  length 0.45
  angle deg
:documentation
   .ast/.asf automatically generated from VICON data using
   VICON BodyBuilder and BodyLanguage model FoxedUp or BRILLIANT.MOD
:root
   order TX TY TZ RX RY RZ
   axis XYZ
   position 0 0 0  
   orientation 0 0 0 
:bonedata
  begin
     id 1 
     name lhipjoint
     direction 0.822369 -0.411937 0.392449 
     length 3.8167 
     axis 0 0 0  XYZ
  end
  begin
     id 2 
     name lfemur
     direction 0.34202 -0.939693 0  
     length 6.16791  
     axis 0 0 20  XYZ
    dof rx ry rz
    limits (-160.0 20.0)
           (-70.0 70.0)
           (-60.0 70.0)
  end
  begin
     id 3 
     name ltibia
     direction 0.34202 -0.939693 0   
     length 7.07101   
     axis 0 0 20   XYZ
    dof rx
    limits (-10.0 170.0)
  end
  begin
     id 4 
     name lfoot
     direction 0.028254 -0.0776273 0.996582   
     length 1.66799   
     axis -90 7.62852e-016 20   XYZ
    dof rx rz
    limits (-45.0 90.0)
           (-70.0 20.0)
  end
  begin
     id 5 
     name ltoes
     direction 1.53483e-011 -4.21688e-011 1   
     length 0.851674   
     axis -90 7.62852e-016 20   XYZ
    dof rx
    limits (-90.0 20.0)
  end
  begin
     id 6 
     name rhipjoint
     direction -0.822466 -0.411836 0.392353   
     length 3.81764  
     axis 0 0 0  XYZ 
  end
  begin
     id 7 
     name rfemur
     direction -0.34202 -0.939693 0   
     length 6.28636   
     axis 0 0 -20   XYZ
    dof rx ry rz
    limits (-160.0 20.0)
           (-70.0 70.0)
           (-70.0 60.0)
  end
  begin
     id 8 
     name rtibia
     direction -0.34202 -0.939693 0   
     length 6.85621   
     axis 0 0 -20   XYZ
    dof rx
    limits (-10.0 170.0)
 end
 begin
     id 9 
     name rfoot
     direction -0.0553036 -0.151945 0.98684   
     length 1.57293  
     axis -90 -7.62852e-016 -20   XYZ
    dof rx rz
    limits (-45.0 90.0)
           (-20.0 70.0)
  end
  begin
     id 10 
     name rtoes
     direction -1.53592e-011 -4.21964e-011 1   
     length 0.802812   
     axis -90 -7.62852e-016 -20   XYZ
    dof rx
    limits (-90.0 20.0)
  end
  begin
     id 11 
     name lowerback
     direction 0.00654913 0.996475 -0.0836396   
     length 1.97212   
     axis 0 0 0   XYZ
    dof rx ry rz
    limits (-20.0 45.0)
           (-30.0 30.0)
           (-30.0 30.0)
  end
  begin
     id 12 
     name upperback
     direction 0.0111875 0.994527 0.103877   
     length 1.89704   
     axis 0 0 0   XYZ
    dof rx ry rz
    limits (-20.0 45.0)
           (-30.0 30.0)
           (-30.0 30.0)
  end
  begin
     id 13 
     name thorax
     direction 0.00473652 0.989004 0.147814   
     length 1.94516   
     axis 0 0 0   XYZ
    dof rx ry rz
    limits (-20.0 45.0)
           (-30.0 30.0)
           (-30.0 30.0)
  end
  begin
     id 14 
     name lowerneck
     direction -0.00925808 0.999011 0.0434791   
     length 1.81771   
     axis 0 0 0   XYZ
    dof rx ry rz
    limits (-20.0 45.0)
           (-30.0 30.0)
           (-30.0 30.0)
  end
  begin
     id 15 
     name upperneck
     direction 0.00451595 0.964412 -0.264365   
     length 1.80434   
     axis 0 0 0   XYZ
    dof rx ry rz
    limits (-20.0 45.0)
           (-30.0 30.0)
           (-30.0 30.0)
  end
  begin
     id 16
     name head
     direction -0.00110849 0.995756 -0.0920241  
     length 1.84006  
     axis 0 0 0   XYZ
    dof rx ry rz
    limits (-20.0 45.0)
           (-30.0 30.0)
           (-30.0 30.0)
  end
  begin
     id 17 
     name lclavicle
     direction 0.921253 0.385213 0.0538957  
     length 3.67415  
     axis 0 0 0   XYZ
    dof ry rz
    limits (-20.0 10.0)
           (0.0 20.0)
  end
  begin
     id 18 
     name lhumerus
     direction 1 -4.48961e-011 6.73441e-028   
     length 4.32712   
     axis 180 -30 -90   XYZ
    dof rx ry rz
    limits (-60.0 90.0)
           (-90.0 90.0)
           (-90.0 90.0)
  end
  begin
     id 19
     name lradius
     direction 1 -4.48985e-011 -9.53507e-028   
     length 3.28587   
     axis 180 -30 -90   XYZ
    dof rx
    limits (-10.0 170.0)
  end
  begin
     id 20
     name lwrist
     direction 1 -4.48951e-011 -4.67472e-027   
     length 1.64293   
     axis 1.65735e-015 90 90   XYZ
    dof ry
    limits (-180.0 0.0)
 end
  begin
     id 21 
     name lhand
     direction 1 -4.48946e-011 -9.34945e-027   
     length 0.433158   
     axis 5.96574e-015 90 90   XYZ
    dof rx rz
    limits (-90.0 90.0)
           (-45.0 45.0)
  end
  begin
     id 22 
     name lfingers
     direction 1 -4.48882e-011 -1.86989e-026   
     length 0.349224   
     axis 1.19315e-014 90 90   XYZ
    dof rx
    limits (0.0 90.0)
  end
  begin
     id 23
     name lthumb
     direction 0.707107 -6.3493e-011 0.707107   
     length 0.501417   
     axis -90 45 2.85299e-015   XYZ
    dof rx rz
    limits (-45.0 45.0)
           (-45.0 45.0)
  end
  begin
     id 24 
     name rclavicle
     direction -0.884378 0.46502 -0.0403866   
     length 3.50218  
     axis 0 0 0   XYZ 
    dof ry rz
    limits (-10.0 20.0)
           (-20.0 0.0)
  end
  begin
     id 25 
     name rhumerus
     direction -1 -4.48964e-011 1.58188e-027  
     length 4.29104   
     axis 180 30 90   XYZ
    dof rx ry rz
    limits (-90.0 60.0)
           (-90.0 90.0)
           (-90.0 90.0)
  end
  begin
     id 26 
     name rradius
     direction -1 -4.48978e-011 -1.9722e-027   
     length 3.2272   
     axis 180 30 90   XYZ
    dof rx
    limits (-10.0 170.0)
  end
  begin
     id 27 
     name rwrist
     direction -1 -4.48969e-011 -4.67472e-027   
     length 1.6136   
     axis 1.65735e-015 -90 -90   XYZ
    dof ry
    limits (-180.0 0.0)
  end
  begin
     id 28
     name rhand
     direction -1 -4.48846e-011 -9.34945e-027   
     length 0.543623   
     axis 5.96574e-015 -90 -90   XYZ
    dof rx rz
    limits (-90.0 90.0)
           (-45.0 45.0)
  end
  begin
     id 29
     name rfingers
     direction -1 -4.49074e-011 -1.86989e-026   
     length 0.438283   
     axis 1.19315e-014 -90 -90   XYZ
    dof rx
    limits (0.0 90.0)
  end
  begin
     id 30
     name rthumb
     direction -0.707107 -6.34834e-011 0.707107   
     length 0.629289   
     axis -90 -45 -2.85299e-015   XYZ
    dof rx rz
    limits (-45.0 45.0)
           (-45.0 45.0)
  end
:hierarchy
  begin
    root lhipjoint rhipjoint lowerback
    lhipjoint lfemur
    lfemur ltibia
    ltibia lfoot
    lfoot ltoes
    rhipjoint rfemur
    rfemur rtibia
    rtibia rfoot
    rfoot rtoes
    lowerback upperback
    upperback thorax
    thorax lowerneck lclavicle rclavicle
    lowerneck upperneck
    upperneck head
    lclavicle lhumerus
    lhumerus lradius
    lradius lwrist
    lwrist lhand lthumb
    lhand lfingers
    rclavicle rhumerus
    rhumerus rradius
    rradius rwrist
    rwrist rhand rthumb
    rhand rfingers
  end

#!OML:ASF H:\GeneralSubjects\Female5\Project 1\Capture day 1\Session 1\Female5.ASF
:FULLY-SPECIFIED
:DEGREES
96
root -28.3944 15.681 8.31477 -168.652 -1.63047 -189.128
lowerback 5.58477 4.27674 -1.62409
upperback -9.89069 4.02694 -5.3638
thorax -13.7011 1.29609 -5.62566
lowerneck -10.8432 8.42614 10.8427
upperneck 35.2362 8.01901 -3.18941
head 14.6422 3.43596 -2.18389
rclavicle 3.1408e-014 2.90226e-014
rhumerus -44.2275 3.60815 -73.3992
rradius 57.6593
rwrist -37.371
rhand -21.4039 -19.6143
rfingers 7.12502
rthumb 4.98434 -49.5357
lclavicle 3.1408e-014 2.90226e-014
lhumerus -45.1506 1.38293 59.48
lradius 77.9347
lwrist 24.1789
lhand -20.8568 33.8124
lfingers 7.12502
lthumb 5.5126 63.7207
rfemur -19.6196 -3.42124 3.17376
rtibia 24.6845
rfoot -29.9895 -10.8326
rtoes -11.0926
lfemur 3.50696 -31.7772 -39.3116
ltibia -8.23917
lfoot -4.04338 34.5559
ltoes -72.2983
97
root -28.3809 15.6829 8.28784 -169.061 -2.21281 -188.656
lowerback 5.56958 4.25912 -1.34646
upperback -9.76253 4.13448 -5.08352
thorax -13.5225 1.37051 -5.47589
lowerneck -11.0903 8.39642 10.9668
upperneck 35.1979 7.97937 -3.22364
head 14.6867 3.4465 -2.2133
rclavicle 4.58447e-014 -6.48038e-014
rhumerus -44.5685 6.46639 -77.3754
rradius 43.7874
rwrist -33.5743
rhand -18.146 -21.7931
rfingers 7.12502
rthumb 8.12947 -51.6167
lclavicle 4.58447e-014 -6.48038e-014
lhumerus -47.1983 -0.271025 63.0521
lradius 65.5386
lwrist 19.9834
lhand -18.2587 34.1669
lfingers 7.12502
lthumb 8.02066 63.9948
rfemur -18.209 -2.37358 3.8718
rtibia 23.6882
rfoot -30.9277 -11.3544
rtoes -10.3129
lfemur 3.8323 -31.1499 -38.9541
ltibia -7.93341
lfoot -1.25129 34.3219
ltoes -73.2515
98
root -28.3683 15.6944 8.25078 -169.472 -2.87175 -188.064
lowerback 5.452 4.22977 -0.942787
upperback -9.65146 4.25037 -4.73679
thorax -13.2944 1.44226 -5.31649
lowerneck -11.2915 8.35158 11.0488
upperneck 35.0923 7.9204 -3.2002
head 14.6811 3.4541 -2.21482
rclavicle -1.28465e-014 1.49089e-015
rhumerus -46.031 9.30787 -81.7258
rradius 32.1081
rwrist -29.0543
rhand -14.3651 -23.8845
rfingers 7.12502
rthumb 11.7771 -53.5334
lclavicle -1.28465e-014 1.49089e-015
lhumerus -49.2687 -1.17955 66.2674
lradius 53.4398
lwrist 14.6247
lhand -15.3999 34.1941
lfingers 7.12502
lthumb 10.7791 63.8976
rfemur -16.8305 -1.60042 4.7454
rtibia 22.8172
rfoot -31.5371 -11.8478
rtoes -9.98281
lfemur 4.16882 -30.5939 -38.5182
ltibia -7.53548
lfoot 0.363732 33.792
ltoes -73.8282
99
root -28.3573 15.7126 8.20734 -169.862 -3.57855 -187.391
lowerback 5.26451 4.16224 -0.511438
upperback -9.55937 4.32572 -4.28253
thorax -13.0555 1.49862 -5.04389
lowerneck -11.3823 8.31884 11.0845
upperneck 34.7788 7.94542 -3.2173
head 14.5587 3.49638 -2.20924
rclavicle -6.3462e-014 5.98342e-014
rhumerus -48.6553 11.4866 -86.012
rradius 23.3792
rwrist -24.2176
rhand -10.4059 -25.0017
rfingers 7.12502
rthumb 15.5927 -54.3932
lclavicle -6.3462e-014 5.98342e-014
lhumerus -51.5541 -0.805343 68.6486
lradius 42.3462
lwrist 7.7005
lhand -12.1836 33.9608
lfingers 7.12502
lthumb 13.8801 63.4776
rfemur -15.4624 -1.06669 5.72959
rtibia 21.9418
rfoot -31.8869 -12.3096
rtoes -9.85595
lfemur 4.82181 -30.0746 -38.1079
ltibia -7.43665
lfoot -0.955589 33.0648
ltoes -73.6557
100
root -28.3491 15.7342 8.16187 -170.229 -4.31427 -186.661
lowerback 5.05628 4.03772 -0.113544
upperback -9.48159 4.3259 -3.69969
thorax -12.8412 1.52795 -4.60203
lowerneck -11.2818 8.33492 11.0888
upperneck 34.1364 8.13992 -3.31729
head 14.2597 3.61233 -2.20195
rclavicle -7.58177e-015 -9.44227e-016
rhumerus -51.9955 12.2125 -89.1495
rradius 17.5741
rwrist -18.8768
rhand -6.70261 -25.0768
rfingers 7.12502
rthumb 19.1568 -54.1533
lclavicle -7.58177e-015 -9.44227e-016
lhumerus -54.1637 1.44873 69.2874
lradius 32.8096
lwrist -1.06814
lhand -8.683 33.3385
lfingers 7.12502
lthumb 17.2516 62.5928
rfemur -14.0523 -0.663371 6.78256
rtibia 20.9274
rfoot -32.1175 -12.7316
rtoes -9.55746
lfemur 5.43601 -29.5948 -37.6304
ltibia -7.33155
lfoot -3.44281 31.9579
ltoes -73.0891
101
root -28.3433 15.7566 8.11774 -170.566 -5.06816 -185.914
lowerback 4.85221 3.85852 0.206299
upperback -9.41293 4.24044 -3.02366
thorax -12.6619 1.5244 -4.00734
lowerneck -11.0317 8.40301 11.0725
upperneck 33.1929 8.47467 -3.45835
head 13.8124 3.79614 -2.18381
rclavicle -3.516e-014 -1.60022e-014
rhumerus -55.0105 10.4449 -89.1446
rradius 13.7705
rwrist -11.9444
rhand -3.68092 -24.2345
rfingers 7.12502
rthumb 22.0603 -52.9962
lclavicle -3.516e-014 -1.60022e-014
lhumerus -57.3417 5.90498 66.8122
lradius 25.1042
lwrist -12.2925
lhand -5.50501 32.3783
lfingers 7.12502
lthumb 20.3081 61.3366
rfemur -12.6076 -0.346928 7.84739
rtibia 19.7524
rfoot -32.3257 -13.0929
rtoes -8.89625
lfemur 6.05345 -30.7807 -37.2843
ltibia -6.96315
lfoot -6.2808 32.0733
ltoes -72.2409
102
root -28.3373 15.7777 8.07527 -170.842 -5.79479 -185.261
lowerback 4.62401 3.65982 0.325167
upperback -9.35652 4.08821 -2.34333
thorax -12.503 1.50053 -3.2902
lowerneck -10.7835 8.48623 11.0438
upperneck 32.1176 8.82408 -3.55847
head 13.3195 3.99779 -2.14535
rclavicle 3.79679e-014 -1.94809e-014
rhumerus -57.4285 6.57592 -85.3593
rradius 11.312
rwrist -3.85352
rhand -1.57639 -23.0822
rfingers 7.12502
rthumb 24.0796 -51.5913
lclavicle 3.79679e-014 -1.94809e-014
lhumerus -61.7831 11.9167 60.0916
lradius 19.5093
lwrist -25.8025
lhand -2.77247 31.3116
lfingers 7.12502
lthumb 22.9323 59.9677
rfemur -11.2232 -0.0651827 8.78919
rtibia 18.4979
rfoot -32.5464 -13.4607
rtoes -8.02699
lfemur 6.51512 -31.6866 -36.9337
ltibia -6.59553
lfoot -8.80998 31.7352
ltoes -71.3733
103
root -28.3322 15.798 8.0345 -171.088 -6.49391 -184.776
lowerback 4.4071 3.46762 0.285491
upperback -9.3089 3.90015 -1.77884
thorax -12.3651 1.46018 -2.61134
lowerneck -10.7375 8.49936 10.969
upperneck 31.1215 8.99648 -3.50907
head 12.8906 4.13177 -2.06779
rclavicle -6.80837e-015 -1.66979e-014
rhumerus -59.9799 2.73744 -80.1867
rradius 10.2947
rwrist 2.34594
rhand -0.285067 -21.8632
rfingers 7.12502
rthumb 25.3173 -50.2029
lclavicle -6.80837e-015 -1.66979e-014
lhumerus -67.9662 17.3731 49.7758
lradius 16.1264
lwrist -39.5834
lhand -1.15481 30.624
lfingers 7.12502
lthumb 24.4838 59.079
rfemur -9.96037 0.0702717 9.49679
rtibia 17.3649
rfoot -32.7528 -13.7751
rtoes -7.22713
lfemur 6.85366 -32.267 -36.6616
ltibia -6.22675
lfoot -10.6042 31.1585
ltoes -70.694
104
root -28.3266 15.8153 7.99536 -171.237 -7.12337 -184.483
lowerback 4.12311 3.31782 0.10811
upperback -9.29927 3.71967 -1.39633
thorax -12.2242 1.41786 -2.05433
lowerneck -10.9313 8.41294 10.8926
upperneck 30.3199 8.92392 -3.29537
head 12.5731 4.16698 -1.96348
rclavicle 2.34069e-014 1.55052e-014
rhumerus -62.8536 0.772166 -76.7344
rradius 10.6655
rwrist 3.72987
rhand 0.723736 -21.0855
rfingers 7.12502
rthumb 26.2834 -49.2848
lclavicle 2.34069e-014 1.55052e-014
lhumerus -74.4962 19.9273 39.6664
lradius 14.5943
lwrist -49.8279
lhand -0.678829 30.6442
lfingers 7.12502
lthumb 24.94 59.0368
rfemur -9.02691 -0.0204308 9.91602
rtibia 16.5887
rfoot -32.9239 -13.8779
rtoes -6.45443
lfemur 7.01048 -32.5898 -36.4597
ltibia -5.87061
lfoot -11.66 30.5485
ltoes -70.2788
105
root -28.3199 15.8292 7.95804 -171.28 -7.66148 -184.372
lowerback 3.76291 3.21989 -0.169825
upperback -9.34187 3.56635 -1.20057
thorax -12.088 1.37977 -1.64648
lowerneck -11.3485 8.21019 10.8178
upperneck 29.7592 8.60224 -2.98235
head 12.381 4.08981 -1.85863
rclavicle -5.15349e-014 -2.62396e-014
rhumerus -65.6223 0.158824 -74.9554
rradius 11.7432
rwrist 1.74829
rhand 1.50777 -20.4983
rfingers 7.12502
rthumb 27.0337 -48.5835
lclavicle -5.15349e-014 -2.62396e-014
lhumerus -79.3077 19.5562 33.4533
lradius 14.2454
lwrist -54.3358
lhand -0.712148 31.1183
lfingers 7.12502
lthumb 24.9081 59.5153
rfemur -8.50235 -0.391985 10.0522
rtibia 16.3052
rfoot -33.0297 -13.6939
rtoes -5.7843
lfemur 7.01191 -32.7311 -36.3299
ltibia -5.55828
lfoot -12.0976 30.0301
ltoes -70.1219
